<svg xmlns="http://www.w3.org/2000/svg" width="32" height="32" id="sun">
  <g transform="translate(375.853 -1843.083)">
    <ellipse cx="-364.353" cy="1858.008" fill="#ffd039" rx="5" ry="5.016"></ellipse>
    <path fill="#cda72e" d="M-364.354 1852.993a5 5.016 0 0 0-5 5.015 5 5.016 0 0 0 5 5.016 5 5.016 0 0 0 .76-.062 5 5.016 0 0 1-4.26-4.954 5 5.016 0 0 1 4.24-4.955 5 5.016 0 0 0-.74-.06z"></path>
    <path fill="#fff" d="M-352.281 1869.583c2.722 0 4.928-2.228 4.928-4.976 0-2.749-2.206-4.977-4.928-4.977h-.212c-.747-2.93-3.363-4.98-6.36-4.982-3.63 0-6.571 2.97-6.571 6.634 0 .03.002.06.003.087a4.01 4.01 0 0 0-.825-.087c-2.268 0-4.107 1.857-4.107 4.147s1.839 4.147 4.107 4.147z"></path>
    <path fill="#e7e7e7" d="M-358.854 1854.647c-3.629 0-6.57 2.97-6.57 6.635l.002.068c.221-.037.445-.068.676-.068.277 0 .553.03.824.088 0-.028 0-.058-.002-.088 0-3.382 2.507-6.166 5.746-6.576-.224-.024-.446-.059-.676-.059zm-7.392 6.635c-2.268 0-4.108 1.856-4.108 4.146s1.84 4.149 4.108 4.149h1.5c-2.268 0-4.108-1.858-4.108-4.149a4.133 4.133 0 0 1 3.338-4.068 3.99 3.99 0 0 0-.73-.078z"></path>
    <path fill="none" stroke="#454b54" stroke-linecap="round" stroke-linejoin="round" d="M-352.281 1869.583c2.722 0 4.928-2.228 4.928-4.976 0-2.749-2.206-4.977-4.928-4.977h-.212c-.747-2.93-3.363-4.98-6.36-4.982-3.63 0-6.571 2.97-6.571 6.634 0 .03.002.06.003.087a4.01 4.01 0 0 0-.825-.087c-2.268 0-4.107 1.857-4.107 4.147s1.839 4.147 4.107 4.147z"></path>
    <path fill="none" stroke="#454b54" d="M-368.019 1861.42a5 5.016 0 0 1-1.051-5.075 5 5.016 0 0 1 3.984-3.298 5 5.016 0 0 1 4.767 1.997"></path>
    <path fill="none" stroke="#454b54" stroke-linecap="round" stroke-linejoin="round" d="M-364.353 1851v-1m-7.993 7.993h1m10.49-6.056.5-.867m-10.919 2.926.866.5m-.866 7.493.866-.5m2.06-10.418.5.866"></path>
  </g>
</svg>
