<svg xmlns="http://www.w3.org/2000/svg" fill-rule="evenodd" stroke-linejoin="round" stroke-miterlimit="2" clip-rule="evenodd" viewBox="0 0 32 32" id="haze">
  <path d="M15.592,29.631c0,-0 6.869,3.067 13.812,0.001c0.505,-0.222 0.734,-0.813 0.511,-1.318c-0.223,-0.505 -0.814,-0.734 -1.319,-0.511c-6.127,2.705 -12.188,0.001 -12.188,0.001c-0.504,-0.224 -1.096,0.002 -1.321,0.506c-0.225,0.504 0.001,1.096 0.505,1.321Zm-12.141,-0.021c0,0 3.798,-1.893 9.108,-0.86c0.542,0.105 1.067,-0.249 1.173,-0.791c0.105,-0.541 -0.249,-1.067 -0.791,-1.172c-6.062,-1.179 -10.392,1.038 -10.392,1.038c-0.493,0.249 -0.69,0.851 -0.441,1.344c0.249,0.492 0.851,0.69 1.343,0.441Zm0,-3.867c0,0 5.302,-2.642 12.148,0.025c0.272,0.118 2.642,1.113 5.907,1.326c0.551,0.035 1.027,-0.383 1.063,-0.933c0.036,-0.551 -0.382,-1.027 -0.933,-1.063c-3.056,-0.199 -5.228,-1.16 -5.228,-1.16c-0.014,-0.006 -0.029,-0.012 -0.043,-0.018c-7.782,-3.051 -13.816,0.039 -13.816,0.039c-0.493,0.249 -0.69,0.851 -0.441,1.343c0.249,0.493 0.851,0.691 1.343,0.441Zm21.99,1.181c1.286,-0.202 2.623,-0.567 3.963,-1.158c0.505,-0.223 0.734,-0.814 0.511,-1.319c-0.223,-0.505 -0.814,-0.734 -1.319,-0.511c-1.172,0.518 -2.341,0.836 -3.466,1.013c-0.545,0.086 -0.918,0.598 -0.832,1.143c0.086,0.545 0.598,0.918 1.143,0.832Zm-0.482,-17.924c-0.389,-2.287 -2.581,-4 -4.959,-4c-0.545,-0 -1.071,0.088 -1.562,0.249c-1.07,-2.497 -3.551,-4.249 -6.438,-4.249c-3.863,-0 -7,3.137 -7,7c-0,0.445 0.042,0.879 0.121,1.301c-2.392,0.789 -4.121,3.044 -4.121,5.699c-0,3.311 2.689,6 6,6l18,-0c3.311,-0 6,-2.689 6,-6c-0,-3.311 -2.689,-6 -6,-6l-0.041,0Zm-1.954,0.991c-0.035,0.317 0.084,0.632 0.319,0.848c0.236,0.215 0.561,0.305 0.874,0.241c0.259,-0.052 0.528,-0.08 0.802,-0.08c2.208,-0 4,1.792 4,4c0,2.208 -1.792,4 -4,4l-18,-0c-2.208,-0 -4,-1.792 -4,-4c0,-2.033 1.52,-3.714 3.484,-3.967c0.301,-0.039 0.568,-0.212 0.726,-0.471c0.158,-0.259 0.19,-0.576 0.087,-0.862c-0.192,-0.53 -0.297,-1.103 -0.297,-1.7c0,-2.76 2.24,-5 5,-5c2.367,-0 4.353,1.648 4.869,3.859c0.074,0.316 0.297,0.577 0.598,0.699c0.301,0.122 0.643,0.091 0.916,-0.085c0.467,-0.299 1.022,-0.473 1.617,-0.473c1.634,-0 3.191,1.307 3.005,2.991Z"></path>
</svg>
