<svg xmlns="http://www.w3.org/2000/svg" viewBox="0 0 48 48" id="rain">
  <path fill="#eff3f9" d="M38.976,14.024c-.248-4.472-3.942-8.024-8.476-8.024-1.522,0-2.948.405-4.184,1.106-1.714-2.479-4.574-4.106-7.816-4.106-5.247,0-9.5,4.253-9.5,9.5,0,.518.053,1.023.133,1.519-3.97.193-7.133,3.463-7.133,7.481,0,4.142,3.358,7.5,7.5,7.5h29c4.142,0,7.5-3.358,7.5-7.5,0-3.981-3.105-7.229-7.024-7.476Z"></path>
  <path fill="#cfe0f3" d="M40.5,25H7.5c-2.12,0-4.031-.883-5.395-2.297.577,3.569,3.663,6.297,7.395,6.297h29c3.732,0,6.818-2.728,7.395-6.297-1.364,1.414-3.275,2.297-5.395,2.297Z"></path>
  <path fill="#fff" d="M17.5,8c2.718,0,5.168,1.142,6.9,2.972.599.634,1.574.755,2.327.316,1.402-.818,3.033-1.288,4.773-1.288,3.011,0,5.69,1.405,7.431,3.591-.456-4.264-4.045-7.591-8.431-7.591-1.522,0-2.948.405-4.184,1.106-1.714-2.479-4.574-4.106-7.816-4.106-5.48,0-9.876,4.64-9.475,10.205.008.002,0,0,.008.002,1.569-3.087,4.767-5.207,8.466-5.207Z"></path>
  <path fill="#08105e" d="M9 38.001c-.104 0-.211-.017-.316-.052-.523-.175-.807-.741-.632-1.265l1-3c.174-.523.737-.809 1.265-.632.523.175.807.741.632 1.265l-1 3c-.14.419-.529.684-.948.684zM19 38.001c-.104 0-.211-.017-.316-.052-.523-.175-.807-.741-.632-1.265l1-3c.175-.523.736-.809 1.265-.632.523.175.807.741.632 1.265l-1 3c-.14.419-.529.684-.948.684zM29 38.001c-.104 0-.211-.017-.316-.052-.523-.175-.807-.741-.632-1.265l1-3c.175-.523.735-.809 1.265-.632.523.175.807.741.632 1.265l-1 3c-.14.419-.529.684-.948.684zM39 38.001c-.104 0-.211-.017-.316-.052-.523-.175-.807-.741-.632-1.265l1-3c.174-.523.737-.809 1.265-.632.523.175.807.741.632 1.265l-1 3c-.14.419-.529.684-.948.684zM13 46c-.104 0-.211-.017-.316-.052-.523-.175-.807-.741-.632-1.265l1-3c.175-.523.736-.808 1.265-.632.523.175.807.741.632 1.265l-1 3c-.14.419-.529.684-.948.684zM23 46c-.104 0-.211-.017-.316-.052-.523-.175-.807-.741-.632-1.265l1-3c.175-.523.735-.808 1.265-.632.523.175.807.741.632 1.265l-1 3c-.14.419-.529.684-.948.684zM33 46c-.104 0-.211-.017-.316-.052-.523-.175-.807-.741-.632-1.265l1-3c.174-.523.737-.808 1.265-.632.523.175.807.741.632 1.265l-1 3c-.14.419-.529.684-.948.684zM38.5 30H9.5c-4.687 0-8.5-3.813-8.5-8.5 0-4.174 3.009-7.663 7.022-8.363-.015-.218-.022-.43-.022-.637 0-5.79 4.71-10.5 10.5-10.5 3.151 0 6.122 1.42 8.11 3.837 1.221-.55 2.55-.837 3.89-.837 4.748 0 8.72 3.504 9.39 8.123 4.05.667 7.11 4.195 7.11 8.377 0 4.687-3.813 8.5-8.5 8.5zM18.5 4c-4.687 0-8.5 3.813-8.5 8.5 0 .415.039.859.12 1.359.045.281-.031.568-.21.789-.18.221-.444.355-.729.37-3.467.168-6.182 3.016-6.182 6.482 0 3.584 2.916 6.5 6.5 6.5h29c3.584 0 6.5-2.916 6.5-6.5 0-3.418-2.674-6.263-6.087-6.478-.506-.032-.908-.437-.936-.943-.221-3.97-3.505-7.079-7.478-7.079-1.289 0-2.564.337-3.69.976-.45.256-1.021.125-1.315-.301-1.592-2.301-4.206-3.675-6.994-3.675z"></path>
</svg>
