<svg xmlns="http://www.w3.org/2000/svg" fill-rule="evenodd" stroke-linejoin="round" stroke-miterlimit="2" clip-rule="evenodd" viewBox="0 0 32 32" id="snow">
  <path fill="url(#_Linear1)" d="M14.346,24.072c-1.342,0.298 -2.346,1.497 -2.346,2.928c0,1.656 1.344,3 3,3c1.656,0 3,-1.344 3,-3c0,-1.136 -0.633,-2.125 -1.565,-2.635l1.459,-2.918c0.247,-0.493 0.047,-1.095 -0.447,-1.341c-0.493,-0.247 -1.095,-0.047 -1.341,0.447l-1.76,3.519Zm8,-0c-1.342,0.298 -2.346,1.497 -2.346,2.928c0,1.656 1.344,3 3,3c1.656,0 3,-1.344 3,-3c0,-1.136 -0.633,-2.125 -1.565,-2.635l1.459,-2.918c0.247,-0.493 0.047,-1.095 -0.447,-1.341c-0.493,-0.247 -1.095,-0.047 -1.341,0.447l-1.76,3.519Zm-16,-0c-1.342,0.298 -2.346,1.497 -2.346,2.928c0,1.656 1.344,3 3,3c1.656,0 3,-1.344 3,-3c0,-1.136 -0.633,-2.125 -1.565,-2.635l1.459,-2.918c0.247,-0.493 0.047,-1.095 -0.447,-1.341c-0.493,-0.247 -1.095,-0.047 -1.341,0.447l-1.76,3.519Zm8.646,1.928l0.015,0c0.549,0.004 0.993,0.45 0.993,1c0,0.552 -0.448,1 -1,1c-0.552,0 -1,-0.448 -1,-1c0,-0.549 0.444,-0.996 0.992,-1Zm8,0l0.015,0c0.549,0.004 0.993,0.45 0.993,1c0,0.552 -0.448,1 -1,1c-0.552,0 -1,-0.448 -1,-1c0,-0.549 0.444,-0.996 0.992,-1Zm-16,0l0.015,0c0.549,0.004 0.993,0.45 0.993,1c0,0.552 -0.448,1 -1,1c-0.552,0 -1,-0.448 -1,-1c0,-0.549 0.444,-0.996 0.992,-1Zm2.226,-19.924c-0.984,0.19 -1.931,0.723 -2.675,1.467c-0.715,0.715 -1.235,1.617 -1.443,2.559c-1.775,0.408 -3.1,2 -3.1,3.898c0,2.208 1.792,4 4,4c0,0 20,0 20,0c2.208,0 4,-1.792 4,-4c0,-2.208 -1.792,-4 -4,-4c-0,0 -0.1,0 -0.1,0c-0.464,-2.281 -2.483,-4 -4.9,-4l-0.223,-0c-0.795,-2.381 -3.111,-4 -5.777,-4c-2.633,0 -4.964,1.711 -5.782,4.076Zm0.782,1.924c0.476,0 0.885,-0.335 0.98,-0.801c0.372,-1.831 2.08,-3.199 4.02,-3.199c1.972,0 3.69,1.29 4.015,3.17c0.082,0.48 0.498,0.83 0.985,0.83l1,0c1.656,0 3,1.344 3,3c0,0.552 0.448,1 1,1l1,0c1.104,0 2,0.896 2,2c0,1.104 -0.896,2 -2,2l-20,0c-1.104,0 -2,-0.896 -2,-2c0,-1.104 0.896,-2 2,-2c0.552,0 1,-0.448 1,-1c0,-0.747 0.397,-1.483 0.957,-2.043c0.56,-0.56 1.296,-0.957 2.043,-0.957Z"></path>
  <defs>
    <linearGradient id="_Linear1" x1="0" x2="1" y1="0" y2="0" gradientTransform="matrix(26 26 -26 26 3 3)" gradientUnits="userSpaceOnUse">
      <stop offset="0" stop-color="#f78cff"></stop>
      <stop offset="1" stop-color="#6dc8ff"></stop>
    </linearGradient>
  </defs>
</svg>
